<?xml version="1.0" encoding="utf-8"?>
<!-- Generator: Adobe Illustrator 17.0.0, SVG Export Plug-In . SVG Version: 6.00 Build 0)  -->
<!DOCTYPE svg PUBLIC "-//W3C//DTD SVG 1.1//EN" "http://www.w3.org/Graphics/SVG/1.1/DTD/svg11.dtd">
<svg version="1.1" id="Layer_1" xmlns="http://www.w3.org/2000/svg" xmlns:xlink="http://www.w3.org/1999/xlink" x="0px" y="0px"
	 width="1280px" height="1280px" viewBox="0 0 1280 1280" enable-background="new 0 0 1280 1280" xml:space="preserve">
<circle fill="#E02DC4" cx="640" cy="640" r="640"/>
<g>
	<g>
		<path fill="#FFFFFF" d="M415.596,864.405l-199.86,199.859l399.727,0L415.596,864.405
			C415.596,864.405,415.596,864.405,415.596,864.405z M694.02,585.982l-94.781,94.781l155.01,155.005l63.64-127.279
			c-1.628-0.814-3.186-1.825-4.545-3.184L694.02,585.982z M574.694,705.309C574.694,705.308,574.694,705.308,574.694,705.309
			L440.14,839.86l208.042,208.039l90.157-180.314c-1.629-0.814-3.184-1.823-4.543-3.18L574.694,705.309z M808.056,471.946
			l85.403,85.403l170.806-341.612L808.056,471.946z M783.514,496.488l-64.953,64.953l115.234,115.234l43.756-87.511
			c-1.628-0.814-3.185-1.824-4.544-3.183L783.514,496.488z"/>
	</g>
</g>
</svg>
